<svg width="40" height="40" viewBox="0 0 40 40" fill="none" xmlns="http://www.w3.org/2000/svg">
<g clip-path="url(#clip0_1_2)">
<path d="M30.8617 40H9.13833C4.10806 40 0 35.8826 0 30.8617V9.13833C0 4.11737 4.11737 0 9.13833 0H30.8617C35.8919 0 40 4.11737 40 9.13833V30.8617C40 35.8919 35.8919 40 30.8617 40Z" fill="white"/>
<path d="M29.511 8.02051H10.3587C7.64792 8.02051 5.44019 10.2376 5.44019 12.939V24.844C5.44019 27.5547 7.65723 29.7625 10.3587 29.7625H17.1216L18.286 31.7746L19.4318 33.7587C19.6367 34.122 20.1584 34.122 20.3727 33.7587L21.5184 31.7746L22.6829 29.7625H29.5203C32.2311 29.7625 34.4388 27.5454 34.4388 24.844V12.9483C34.4388 10.2376 32.2217 8.02051 29.511 8.02051Z" fill="url(#paint0_linear_1_2)"/>
<path d="M21.2762 16.7396C19.7951 16.7396 18.5934 17.9227 18.5934 19.3852C18.5934 20.8477 19.7951 22.0307 21.2762 22.0307C22.7573 22.0307 23.959 20.8477 23.959 19.3852C23.959 17.9227 22.7666 16.7396 21.2762 16.7396ZM21.2762 20.6521C20.5682 20.6521 19.9907 20.0838 19.9907 19.3852C19.9907 18.6865 20.5682 18.1183 21.2762 18.1183C21.9842 18.1183 22.5617 18.6865 22.5617 19.3852C22.5617 20.0838 21.9935 20.6521 21.2762 20.6521Z" fill="white"/>
<path d="M12.7899 16.7396C12.2124 16.7396 11.6721 16.9632 11.2529 17.3451V15.156H9.76245V21.9096H11.2529V21.4345C11.6721 21.8072 12.2031 22.04 12.7899 22.04C14.122 22.04 15.2026 20.857 15.2026 19.3945C15.2026 17.932 14.1313 16.7396 12.7899 16.7396ZM12.4918 20.708C11.9422 20.708 11.4672 20.3819 11.2622 19.9068C11.197 19.7485 11.1504 19.5715 11.1504 19.3852C11.1504 19.1989 11.1877 19.0219 11.2622 18.8635C11.4672 18.3884 11.9422 18.0624 12.4918 18.0624C13.2371 18.0624 13.8332 18.6493 13.8332 19.3852C13.8332 20.1211 13.2371 20.708 12.4918 20.708Z" fill="white"/>
<path d="M28.6074 16.8514V17.2706C28.1882 16.9446 27.6666 16.749 27.1076 16.749C25.7383 16.749 24.6298 17.8947 24.6298 19.3014C24.6298 20.708 25.7383 21.8538 27.1076 21.8538C27.6759 21.8538 28.1975 21.6581 28.6074 21.3321V22.0401C28.6074 22.0401 28.4584 22.7387 27.415 22.7387V24.0522C27.415 24.0522 28.5422 24.1826 29.5483 23.1765C29.5483 23.1765 30.014 22.6828 30.1165 22.0308V16.8514H28.6074ZM27.3871 20.5962C26.6326 20.5962 26.0271 20.0093 26.0271 19.292C26.0271 18.5748 26.6419 17.9879 27.3871 17.9879C27.9181 17.9879 28.3838 18.286 28.6074 18.7145C28.7006 18.8915 28.7471 19.0871 28.7471 19.292C28.7471 19.497 28.6912 19.7019 28.6074 19.8696C28.3838 20.3074 27.9181 20.5962 27.3871 20.5962Z" fill="white"/>
<path d="M15.3704 15.0256V16.3763C15.3704 16.3763 16.0597 16.4695 16.1901 17.1402V21.9096H17.7271V17.1402V17.1029C17.634 16.4322 17.2334 15.9292 17.2334 15.9292C16.3578 14.8952 15.3704 15.0256 15.3704 15.0256Z" fill="white"/>
</g>
<defs>
<linearGradient id="paint0_linear_1_2" x1="19.9378" y1="34.0293" x2="19.9378" y2="8.02312" gradientUnits="userSpaceOnUse">
<stop stop-color="#00D44D"/>
<stop offset="1" stop-color="#00E56D"/>
</linearGradient>
<clipPath id="clip0_1_2">
<rect width="40" height="40" fill="white"/>
</clipPath>
</defs>
</svg>
