<svg width="264" height="60" viewBox="0 0 264 60" fill="none" xmlns="http://www.w3.org/2000/svg">
<path d="M32.562 0H41.2362V19.6712H47.5439V0.0438296H55.6014V59.6897H47.594V29.0591H41.352V59.7022H32.562V0Z" fill="black"/>
<path d="M8.38623 16.4626H17.9996V5.81934H26.5924V47.4249H0V5.82873H8.38623V16.4626ZM8.44884 26.0634V38.6662H17.9714V26.0634H8.44884Z" fill="black"/>
<path d="M66.1945 59.8838V43.9596H98.5155V40.7573H66.1977V35.06H108.279V50.2454H75.0973V53.4352H108.292V59.8838H66.1945Z" fill="black"/>
<path d="M160.594 3.97556H190.392V33.0002H160.594V3.97556ZM181.88 12.2585H169.115V24.902H181.883L181.88 12.2585Z" fill="black"/>
<path d="M245.311 8.97474C248.184 13.0442 251.884 15.4671 256.17 17.0949C257.128 17.458 258.101 17.7867 259.087 18.0622C259.644 18.2187 259.898 18.4347 259.876 19.0701C259.823 20.5852 259.86 22.1003 259.86 23.6154C255.228 23.6874 244.744 21.0642 237.979 13.4198C231.919 19.5804 224.24 22.573 215.97 24.7517C215.97 22.7702 215.935 20.9703 216.004 19.1766C216.004 18.9042 216.449 18.5223 216.765 18.4128C220.747 17.026 224.428 15.1102 227.558 12.2585C228.522 11.3789 229.293 10.2895 230.15 9.29403L229.931 9.00291H215.713V1.80309H260.164V8.98725L245.311 8.97474Z" fill="black"/>
<path d="M91.6068 3.86287V11.9329H71.0905V23.4464H93.0656V30.7276H62.1533V3.86287H91.6068Z" fill="black"/>
<path d="M153.666 58.9353H146.372V50.5021C139.886 55.3354 132.408 56.2056 124.879 56.8066C122.707 56.9819 120.497 56.8348 118.249 56.8348V50.261C118.825 50.261 119.379 50.261 119.933 50.261C128.667 50.5553 137.11 49.0277 145.364 46.2667C146.056 46.0351 146.266 45.7095 146.263 44.9864C146.235 36.9915 146.244 28.9934 146.244 20.9985V19.7463H153.666V58.9353Z" fill="black"/>
<path d="M215.4 39.3924H260.377C260.418 39.5916 260.444 39.7936 260.455 39.9966C260.364 43.8845 260.521 47.7974 260.089 51.6447C259.798 54.2272 258.699 56.7252 257.898 59.2358C257.81 59.4227 257.679 59.5862 257.516 59.7125C257.353 59.8388 257.162 59.9243 256.959 59.962C254.31 60.0215 251.659 59.9933 248.82 59.9933C250.698 56.0397 251.837 52.0078 251.765 47.5752H215.4V39.3924Z" fill="black"/>
<path d="M263.464 27.2842V35.348H212.439V27.3719H233.099V21.2864H242.803V27.2748L263.464 27.2842Z" fill="black"/>
<path d="M174.593 51.4568H207.887V59.9088H165.834V39.9778H174.599L174.593 51.4568Z" fill="black"/>
<path d="M198.155 0.313034H207.198V38.5754H198.155V0.313034Z" fill="black"/>
<path d="M108.608 32.5839C108.166 32.609 107.891 32.6371 107.615 32.6371H99.7176V0.284866H108.577V12.6279H114.941V21.5995H108.608V32.5839Z" fill="black"/>
<path d="M119.768 32.5244C119.846 30.834 119.768 29.1186 120.037 27.4564C120.285 25.977 121.035 24.6281 122.16 23.6358C123.285 22.6435 124.717 22.0683 126.216 22.0064C128.864 21.9 131.522 21.8969 134.167 22.0064C137.664 22.1504 140.237 24.8863 140.375 28.5802C140.469 31.122 140.472 33.6733 140.375 36.212C140.221 39.9121 137.767 42.4257 134.058 42.6261C131.451 42.768 128.839 42.7742 126.232 42.6449C122.428 42.4508 119.868 39.6178 119.865 35.827C119.865 34.7313 119.865 33.6357 119.865 32.5401L119.768 32.5244ZM134.255 32.3304C134.255 31.6229 134.274 30.9154 134.255 30.208C134.266 29.4734 133.99 28.7635 133.485 28.2296C132.981 27.6957 132.287 27.3801 131.553 27.3499C130.67 27.2952 129.785 27.2952 128.902 27.3499C127.158 27.4689 126 28.743 125.991 30.4803C125.991 31.7324 125.991 32.9564 125.991 34.196C125.991 35.9584 127.171 37.2074 128.927 37.3045C129.772 37.3514 130.627 37.3452 131.472 37.3045C133.115 37.2325 134.211 36.093 134.255 34.4308C134.274 33.7453 134.255 33.0378 134.255 32.3304Z" fill="black"/>
</svg>
