<svg width="69" height="60" viewBox="0 0 69 60" fill="none" xmlns="http://www.w3.org/2000/svg">
<path d="M68.7983 26.5232C67.9489 19.2745 64.4782 12.5828 59.0356 7.70075C53.5931 2.81868 46.552 0.0809378 39.2302 0H38.898C33.5874 0.00438038 28.3717 1.40345 23.7762 4.05629L23.5492 4.19426L23.3499 4.31015C6.14063 14.5254 0 38.1126 0 52.4724L13.8427 44.4978C18.7264 53.7748 28.1007 59.8841 38.5492 60H38.8814C40.0472 60.0003 41.212 59.9321 42.3698 59.7958C46.2972 59.3409 50.0962 58.1195 53.5499 56.2011C57.0037 54.2828 60.0444 51.7052 62.4986 48.6155C64.9528 45.5257 66.7722 41.9845 67.8531 38.1938C68.9341 34.4032 69.2552 30.4375 68.7983 26.5232Z" fill="#0050FF"/>
</svg>
